<svg width="12" height="13" viewBox="0 0 12 13" fill="none" xmlns="http://www.w3.org/2000/svg">
<path fill-rule="evenodd" clip-rule="evenodd" d="M2.73483 3.23483C2.88128 3.08839 3.11872 3.08839 3.26517 3.23483L6 5.96967L8.73483 3.23484C8.88128 3.08839 9.11872 3.08839 9.26517 3.23484C9.41161 3.38128 9.41161 3.61872 9.26517 3.76517L6.53033 6.5L9.26517 9.23483C9.41161 9.38128 9.41161 9.61872 9.26517 9.76517C9.11872 9.91161 8.88128 9.91161 8.73483 9.76517L6 7.03033L3.26517 9.76517C3.11872 9.91161 2.88128 9.91161 2.73484 9.76517C2.58839 9.61872 2.58839 9.38128 2.73484 9.23483L5.46967 6.5L2.73483 3.76517C2.58839 3.61872 2.58839 3.38128 2.73483 3.23483Z" fill="#3E424A"/>
</svg>
