<svg width="20" height="20" viewBox="0 0 20 20" fill="none" xmlns="http://www.w3.org/2000/svg">
<path d="M1.69556 10.2687C1.63799 10.0959 1.63794 9.90895 1.6954 9.73619C2.85237 6.2581 6.13326 3.75 9.99994 3.75C13.8648 3.75 17.1445 6.25577 18.3029 9.73134C18.3604 9.90406 18.3605 10.0911 18.303 10.2638C17.1461 13.7419 13.8652 16.25 9.99848 16.25C6.1336 16.25 2.85397 13.7442 1.69556 10.2687Z" stroke="#0F172A" stroke-width="1.5" stroke-linecap="round" stroke-linejoin="round"/>
<path d="M12.4993 10C12.4993 11.3807 11.38 12.5 9.99927 12.5C8.61856 12.5 7.49927 11.3807 7.49927 10C7.49927 8.61929 8.61856 7.5 9.99927 7.5C11.38 7.5 12.4993 8.61929 12.4993 10Z" stroke="#0F172A" stroke-width="1.5" stroke-linecap="round" stroke-linejoin="round"/>
</svg>
